<mxfile host="app.diagrams.net" modified="2025-01-03T13:19:12.212Z" agent="Mozilla/5.0 (Macintosh; Intel Mac OS X 10_15_7) AppleWebKit/537.36 (KHTML, like Gecko) Chrome/131.0.0.0 Safari/537.36" etag="E4MGX228CTPiDg6t0UHE" version="21.6.2" type="device">
  <diagram name="Page-1" id="REa99KtzlAY7XR-984mE">
    <mxGraphModel dx="1599" dy="1247" grid="1" gridSize="10" guides="1" tooltips="1" connect="1" arrows="1" fold="1" page="1" pageScale="1" pageWidth="827" pageHeight="1169" math="0" shadow="0">
      <root>
        <mxCell id="0" />
        <mxCell id="1" parent="0" />
        <mxCell id="uebBENzF8Cfto2oKfxIs-1" value="AND" style="shape=or;whiteSpace=wrap;html=1;" vertex="1" parent="1">
          <mxGeometry x="255" y="1985" width="30" height="50" as="geometry" />
        </mxCell>
        <mxCell id="uebBENzF8Cfto2oKfxIs-10" style="edgeStyle=orthogonalEdgeStyle;rounded=0;orthogonalLoop=1;jettySize=auto;html=1;entryX=0;entryY=0.5;entryDx=0;entryDy=0;" edge="1" parent="1" source="uebBENzF8Cfto2oKfxIs-2" target="uebBENzF8Cfto2oKfxIs-6">
          <mxGeometry relative="1" as="geometry" />
        </mxCell>
        <mxCell id="uebBENzF8Cfto2oKfxIs-13" value="bjc" style="edgeStyle=orthogonalEdgeStyle;rounded=0;orthogonalLoop=1;jettySize=auto;html=1;exitX=0;exitY=0.25;exitDx=0;exitDy=0;exitPerimeter=0;startArrow=none;startFill=0;endArrow=none;endFill=0;entryX=1;entryY=0.5;entryDx=0;entryDy=0;entryPerimeter=0;" edge="1" parent="1" source="uebBENzF8Cfto2oKfxIs-2" target="uebBENzF8Cfto2oKfxIs-42">
          <mxGeometry relative="1" as="geometry">
            <mxPoint x="280" y="32.5" as="targetPoint" />
            <Array as="points">
              <mxPoint x="400" y="63.5" />
              <mxPoint x="400" y="37.5" />
            </Array>
          </mxGeometry>
        </mxCell>
        <mxCell id="uebBENzF8Cfto2oKfxIs-15" value="tkj" style="edgeStyle=orthogonalEdgeStyle;rounded=0;orthogonalLoop=1;jettySize=auto;html=1;exitX=0;exitY=0.75;exitDx=0;exitDy=0;exitPerimeter=0;endArrow=none;endFill=0;" edge="1" parent="1" source="uebBENzF8Cfto2oKfxIs-2">
          <mxGeometry relative="1" as="geometry">
            <mxPoint x="400" y="81.2619047619047" as="targetPoint" />
          </mxGeometry>
        </mxCell>
        <mxCell id="uebBENzF8Cfto2oKfxIs-2" value="XOR" style="verticalLabelPosition=bottom;shadow=0;dashed=0;align=center;html=1;verticalAlign=top;shape=mxgraph.electrical.logic_gates.logic_gate;operation=xor;" vertex="1" parent="1">
          <mxGeometry x="574" y="55" width="50" height="35" as="geometry" />
        </mxCell>
        <mxCell id="uebBENzF8Cfto2oKfxIs-3" value="OR" style="shape=xor;whiteSpace=wrap;html=1;" vertex="1" parent="1">
          <mxGeometry x="315" y="1990" width="30" height="40" as="geometry" />
        </mxCell>
        <mxCell id="uebBENzF8Cfto2oKfxIs-5" value="z05" style="rounded=0;whiteSpace=wrap;html=1;fillColor=#f8cecc;strokeColor=#b85450;fontStyle=1" vertex="1" parent="1">
          <mxGeometry x="740" y="182.5" width="120" height="60" as="geometry" />
        </mxCell>
        <mxCell id="uebBENzF8Cfto2oKfxIs-6" value="z04" style="rounded=0;whiteSpace=wrap;html=1;" vertex="1" parent="1">
          <mxGeometry x="740" y="42.5" width="120" height="60" as="geometry" />
        </mxCell>
        <mxCell id="uebBENzF8Cfto2oKfxIs-7" value="z06" style="rounded=0;whiteSpace=wrap;html=1;" vertex="1" parent="1">
          <mxGeometry x="740" y="359" width="120" height="60" as="geometry" />
        </mxCell>
        <mxCell id="uebBENzF8Cfto2oKfxIs-8" value="z07" style="rounded=0;whiteSpace=wrap;html=1;" vertex="1" parent="1">
          <mxGeometry x="740" y="594" width="120" height="60" as="geometry" />
        </mxCell>
        <mxCell id="uebBENzF8Cfto2oKfxIs-9" value="z08" style="rounded=0;whiteSpace=wrap;html=1;" vertex="1" parent="1">
          <mxGeometry x="744" y="740" width="120" height="60" as="geometry" />
        </mxCell>
        <mxCell id="uebBENzF8Cfto2oKfxIs-17" style="edgeStyle=orthogonalEdgeStyle;rounded=0;orthogonalLoop=1;jettySize=auto;html=1;" edge="1" parent="1" source="uebBENzF8Cfto2oKfxIs-16" target="uebBENzF8Cfto2oKfxIs-5">
          <mxGeometry relative="1" as="geometry" />
        </mxCell>
        <mxCell id="uebBENzF8Cfto2oKfxIs-18" value="&lt;font color=&quot;#f19c99&quot;&gt;sgt&lt;/font&gt;" style="edgeStyle=orthogonalEdgeStyle;rounded=0;orthogonalLoop=1;jettySize=auto;html=1;exitX=0.175;exitY=0.25;exitDx=0;exitDy=0;exitPerimeter=0;endArrow=none;endFill=0;fontStyle=0;fillColor=#f8cecc;strokeColor=#b85450;entryX=1;entryY=0.5;entryDx=0;entryDy=0;entryPerimeter=0;" edge="1" parent="1" source="uebBENzF8Cfto2oKfxIs-16" target="uebBENzF8Cfto2oKfxIs-33">
          <mxGeometry x="-0.2174" relative="1" as="geometry">
            <mxPoint x="410" y="202.6428571428571" as="targetPoint" />
            <Array as="points">
              <mxPoint x="400" y="202.5" />
              <mxPoint x="400" y="172.5" />
              <mxPoint x="270" y="172.5" />
              <mxPoint x="270" y="175.5" />
            </Array>
            <mxPoint as="offset" />
          </mxGeometry>
        </mxCell>
        <mxCell id="uebBENzF8Cfto2oKfxIs-19" value="bhb" style="edgeStyle=orthogonalEdgeStyle;rounded=0;orthogonalLoop=1;jettySize=auto;html=1;exitX=0.175;exitY=0.75;exitDx=0;exitDy=0;exitPerimeter=0;endArrow=none;endFill=0;fontStyle=0;fillColor=#f8cecc;strokeColor=#000000;entryX=1;entryY=0.5;entryDx=0;entryDy=0;entryPerimeter=0;" edge="1" parent="1" source="uebBENzF8Cfto2oKfxIs-16" target="uebBENzF8Cfto2oKfxIs-36">
          <mxGeometry x="-0.0795" relative="1" as="geometry">
            <mxPoint x="310" y="257.4999999999999" as="targetPoint" />
            <mxPoint x="599.25" y="222.4999999999999" as="sourcePoint" />
            <Array as="points">
              <mxPoint x="400" y="222.5" />
              <mxPoint x="400" y="257.5" />
            </Array>
            <mxPoint as="offset" />
          </mxGeometry>
        </mxCell>
        <mxCell id="uebBENzF8Cfto2oKfxIs-16" value="OR" style="shape=xor;whiteSpace=wrap;html=1;fontStyle=0;fillColor=#f8cecc;strokeColor=#b85450;" vertex="1" parent="1">
          <mxGeometry x="584" y="192.5" width="30" height="40" as="geometry" />
        </mxCell>
        <mxCell id="uebBENzF8Cfto2oKfxIs-21" style="edgeStyle=orthogonalEdgeStyle;rounded=0;orthogonalLoop=1;jettySize=auto;html=1;entryX=0;entryY=0.5;entryDx=0;entryDy=0;" edge="1" parent="1" source="uebBENzF8Cfto2oKfxIs-20" target="uebBENzF8Cfto2oKfxIs-7">
          <mxGeometry relative="1" as="geometry" />
        </mxCell>
        <mxCell id="uebBENzF8Cfto2oKfxIs-22" value="vjh" style="edgeStyle=orthogonalEdgeStyle;rounded=0;orthogonalLoop=1;jettySize=auto;html=1;exitX=0;exitY=0.25;exitDx=0;exitDy=0;exitPerimeter=0;endArrow=none;endFill=0;entryX=1;entryY=0.5;entryDx=0;entryDy=0;entryPerimeter=0;" edge="1" parent="1" source="uebBENzF8Cfto2oKfxIs-20" target="uebBENzF8Cfto2oKfxIs-39">
          <mxGeometry relative="1" as="geometry">
            <mxPoint x="310" y="380" as="targetPoint" />
          </mxGeometry>
        </mxCell>
        <mxCell id="uebBENzF8Cfto2oKfxIs-23" value="&lt;font color=&quot;#f19c99&quot;&gt;jst&lt;/font&gt;" style="edgeStyle=orthogonalEdgeStyle;rounded=0;orthogonalLoop=1;jettySize=auto;html=1;exitX=0;exitY=0.75;exitDx=0;exitDy=0;exitPerimeter=0;endArrow=none;endFill=0;entryX=1;entryY=0.5;entryDx=0;entryDy=0;entryPerimeter=0;fillColor=#f8cecc;strokeColor=#b85450;fontStyle=1" edge="1" parent="1" source="uebBENzF8Cfto2oKfxIs-20" target="uebBENzF8Cfto2oKfxIs-45">
          <mxGeometry x="-0.0153" y="-1" relative="1" as="geometry">
            <mxPoint x="280" y="450" as="targetPoint" />
            <Array as="points">
              <mxPoint x="470" y="398" />
              <mxPoint x="470" y="448" />
              <mxPoint x="280" y="448" />
            </Array>
            <mxPoint y="1" as="offset" />
          </mxGeometry>
        </mxCell>
        <mxCell id="uebBENzF8Cfto2oKfxIs-20" value="XOR" style="verticalLabelPosition=bottom;shadow=0;dashed=0;align=center;html=1;verticalAlign=top;shape=mxgraph.electrical.logic_gates.logic_gate;operation=xor;" vertex="1" parent="1">
          <mxGeometry x="574" y="371.5" width="50" height="35" as="geometry" />
        </mxCell>
        <mxCell id="uebBENzF8Cfto2oKfxIs-24" value="&lt;font color=&quot;#f19c99&quot;&gt;shw&lt;/font&gt;" style="edgeStyle=orthogonalEdgeStyle;rounded=0;orthogonalLoop=1;jettySize=auto;html=1;exitX=0;exitY=0.25;exitDx=0;exitDy=0;exitPerimeter=0;endArrow=none;endFill=0;entryX=1;entryY=0.5;entryDx=0;entryDy=0;entryPerimeter=0;fillColor=#f8cecc;strokeColor=#b85450;" edge="1" parent="1" target="uebBENzF8Cfto2oKfxIs-51">
          <mxGeometry x="-0.0038" relative="1" as="geometry">
            <mxPoint x="350" y="614" as="targetPoint" />
            <mxPoint x="574" y="616.2500000000002" as="sourcePoint" />
            <mxPoint as="offset" />
          </mxGeometry>
        </mxCell>
        <mxCell id="uebBENzF8Cfto2oKfxIs-25" value="wht" style="edgeStyle=orthogonalEdgeStyle;rounded=0;orthogonalLoop=1;jettySize=auto;html=1;exitX=0;exitY=0.75;exitDx=0;exitDy=0;exitPerimeter=0;endArrow=none;endFill=0;entryX=1;entryY=0.5;entryDx=0;entryDy=0;entryPerimeter=0;" edge="1" parent="1" source="uebBENzF8Cfto2oKfxIs-26" target="uebBENzF8Cfto2oKfxIs-55">
          <mxGeometry x="-0.0014" relative="1" as="geometry">
            <mxPoint x="320" y="684" as="targetPoint" />
            <mxPoint x="564.95" y="654.0000000000002" as="sourcePoint" />
            <Array as="points">
              <mxPoint x="490" y="633" />
              <mxPoint x="490" y="672" />
              <mxPoint x="320" y="672" />
            </Array>
            <mxPoint as="offset" />
          </mxGeometry>
        </mxCell>
        <mxCell id="uebBENzF8Cfto2oKfxIs-27" style="edgeStyle=orthogonalEdgeStyle;rounded=0;orthogonalLoop=1;jettySize=auto;html=1;entryX=0;entryY=0.5;entryDx=0;entryDy=0;" edge="1" parent="1">
          <mxGeometry relative="1" as="geometry">
            <mxPoint x="624" y="625.0000000000002" as="sourcePoint" />
            <mxPoint x="740" y="625.0000000000002" as="targetPoint" />
          </mxGeometry>
        </mxCell>
        <mxCell id="uebBENzF8Cfto2oKfxIs-26" value="XOR" style="verticalLabelPosition=bottom;shadow=0;dashed=0;align=center;html=1;verticalAlign=top;shape=mxgraph.electrical.logic_gates.logic_gate;operation=xor;" vertex="1" parent="1">
          <mxGeometry x="574" y="606.5" width="50" height="35" as="geometry" />
        </mxCell>
        <mxCell id="uebBENzF8Cfto2oKfxIs-28" value="mnn" style="edgeStyle=orthogonalEdgeStyle;rounded=0;orthogonalLoop=1;jettySize=auto;html=1;exitX=0;exitY=0.25;exitDx=0;exitDy=0;exitPerimeter=0;endArrow=none;endFill=0;" edge="1" parent="1" source="uebBENzF8Cfto2oKfxIs-30">
          <mxGeometry relative="1" as="geometry">
            <mxPoint x="414" y="761.1034482758621" as="targetPoint" />
          </mxGeometry>
        </mxCell>
        <mxCell id="uebBENzF8Cfto2oKfxIs-29" value="vbk" style="edgeStyle=orthogonalEdgeStyle;rounded=0;orthogonalLoop=1;jettySize=auto;html=1;exitX=0;exitY=0.75;exitDx=0;exitDy=0;exitPerimeter=0;endArrow=none;endFill=0;" edge="1" parent="1" source="uebBENzF8Cfto2oKfxIs-30">
          <mxGeometry relative="1" as="geometry">
            <mxPoint x="414" y="779.0344827586207" as="targetPoint" />
          </mxGeometry>
        </mxCell>
        <mxCell id="uebBENzF8Cfto2oKfxIs-31" style="edgeStyle=orthogonalEdgeStyle;rounded=0;orthogonalLoop=1;jettySize=auto;html=1;" edge="1" parent="1" source="uebBENzF8Cfto2oKfxIs-30" target="uebBENzF8Cfto2oKfxIs-9">
          <mxGeometry relative="1" as="geometry" />
        </mxCell>
        <mxCell id="uebBENzF8Cfto2oKfxIs-30" value="XOR" style="verticalLabelPosition=bottom;shadow=0;dashed=0;align=center;html=1;verticalAlign=top;shape=mxgraph.electrical.logic_gates.logic_gate;operation=xor;" vertex="1" parent="1">
          <mxGeometry x="578" y="752.5" width="50" height="35" as="geometry" />
        </mxCell>
        <mxCell id="uebBENzF8Cfto2oKfxIs-74" value="gdf" style="edgeStyle=orthogonalEdgeStyle;rounded=0;orthogonalLoop=1;jettySize=auto;html=1;exitX=1;exitY=0.5;exitDx=0;exitDy=0;exitPerimeter=0;endArrow=none;endFill=0;fillColor=#f8cecc;strokeColor=#b85450;" edge="1" parent="1" source="uebBENzF8Cfto2oKfxIs-32">
          <mxGeometry relative="1" as="geometry">
            <mxPoint x="440" y="1067.2857142857142" as="targetPoint" />
          </mxGeometry>
        </mxCell>
        <mxCell id="uebBENzF8Cfto2oKfxIs-32" value="XOR" style="verticalLabelPosition=bottom;shadow=0;dashed=0;align=center;html=1;verticalAlign=top;shape=mxgraph.electrical.logic_gates.logic_gate;operation=xor;" vertex="1" parent="1">
          <mxGeometry x="320" y="1050" width="50" height="35" as="geometry" />
        </mxCell>
        <mxCell id="uebBENzF8Cfto2oKfxIs-34" value="y05" style="edgeStyle=orthogonalEdgeStyle;rounded=0;orthogonalLoop=1;jettySize=auto;html=1;exitX=0;exitY=0.25;exitDx=0;exitDy=0;exitPerimeter=0;endArrow=none;endFill=0;" edge="1" parent="1" source="uebBENzF8Cfto2oKfxIs-33">
          <mxGeometry x="1" y="10" relative="1" as="geometry">
            <mxPoint x="140" y="162.36734693877543" as="targetPoint" />
            <mxPoint x="-9" y="-10" as="offset" />
          </mxGeometry>
        </mxCell>
        <mxCell id="uebBENzF8Cfto2oKfxIs-35" value="x05" style="edgeStyle=orthogonalEdgeStyle;rounded=0;orthogonalLoop=1;jettySize=auto;html=1;exitX=0;exitY=0.75;exitDx=0;exitDy=0;exitPerimeter=0;endArrow=none;endFill=0;" edge="1" parent="1" source="uebBENzF8Cfto2oKfxIs-33">
          <mxGeometry x="1" y="10" relative="1" as="geometry">
            <mxPoint x="140" y="187.67346938775506" as="targetPoint" />
            <mxPoint x="-10" y="-10" as="offset" />
          </mxGeometry>
        </mxCell>
        <mxCell id="uebBENzF8Cfto2oKfxIs-33" value="AND" style="shape=or;whiteSpace=wrap;html=1;fillColor=#f8cecc;strokeColor=#b85450;" vertex="1" parent="1">
          <mxGeometry x="270" y="150" width="30" height="50" as="geometry" />
        </mxCell>
        <mxCell id="uebBENzF8Cfto2oKfxIs-37" value="ggh" style="edgeStyle=orthogonalEdgeStyle;rounded=0;orthogonalLoop=1;jettySize=auto;html=1;exitX=0;exitY=0.25;exitDx=0;exitDy=0;exitPerimeter=0;endArrow=none;endFill=0;" edge="1" parent="1" source="uebBENzF8Cfto2oKfxIs-36">
          <mxGeometry relative="1" as="geometry">
            <mxPoint x="170.0000000000001" y="244.98275862068965" as="targetPoint" />
          </mxGeometry>
        </mxCell>
        <mxCell id="uebBENzF8Cfto2oKfxIs-38" value="tvp" style="edgeStyle=orthogonalEdgeStyle;rounded=0;orthogonalLoop=1;jettySize=auto;html=1;exitX=0;exitY=0.75;exitDx=0;exitDy=0;exitPerimeter=0;endArrow=none;endFill=0;" edge="1" parent="1" source="uebBENzF8Cfto2oKfxIs-36">
          <mxGeometry relative="1" as="geometry">
            <mxPoint x="170.0000000000001" y="269.8103448275863" as="targetPoint" />
          </mxGeometry>
        </mxCell>
        <mxCell id="uebBENzF8Cfto2oKfxIs-36" value="AND" style="shape=or;whiteSpace=wrap;html=1;" vertex="1" parent="1">
          <mxGeometry x="270" y="232.5" width="30" height="50" as="geometry" />
        </mxCell>
        <mxCell id="uebBENzF8Cfto2oKfxIs-40" value="y06" style="edgeStyle=orthogonalEdgeStyle;rounded=0;orthogonalLoop=1;jettySize=auto;html=1;exitX=0;exitY=0.25;exitDx=0;exitDy=0;exitPerimeter=0;endArrow=none;endFill=0;" edge="1" parent="1" source="uebBENzF8Cfto2oKfxIs-39">
          <mxGeometry x="1" y="10" relative="1" as="geometry">
            <mxPoint x="120" y="368" as="targetPoint" />
            <mxPoint x="-10" y="-10" as="offset" />
          </mxGeometry>
        </mxCell>
        <mxCell id="uebBENzF8Cfto2oKfxIs-41" value="x06" style="edgeStyle=orthogonalEdgeStyle;rounded=0;orthogonalLoop=1;jettySize=auto;html=1;exitX=0;exitY=0.75;exitDx=0;exitDy=0;exitPerimeter=0;endArrow=none;endFill=0;" edge="1" parent="1" source="uebBENzF8Cfto2oKfxIs-39">
          <mxGeometry x="1" y="10" relative="1" as="geometry">
            <mxPoint x="120" y="385.25" as="targetPoint" />
            <mxPoint x="-10" y="-10" as="offset" />
          </mxGeometry>
        </mxCell>
        <mxCell id="uebBENzF8Cfto2oKfxIs-39" value="XOR" style="verticalLabelPosition=bottom;shadow=0;dashed=0;align=center;html=1;verticalAlign=top;shape=mxgraph.electrical.logic_gates.logic_gate;operation=xor;" vertex="1" parent="1">
          <mxGeometry x="260" y="359" width="50" height="35" as="geometry" />
        </mxCell>
        <mxCell id="uebBENzF8Cfto2oKfxIs-43" value="y04" style="edgeStyle=orthogonalEdgeStyle;rounded=0;orthogonalLoop=1;jettySize=auto;html=1;exitX=0;exitY=0.25;exitDx=0;exitDy=0;exitPerimeter=0;endArrow=none;endFill=0;" edge="1" parent="1" source="uebBENzF8Cfto2oKfxIs-42">
          <mxGeometry x="1" y="20" relative="1" as="geometry">
            <mxPoint x="120" y="28.499999999999886" as="targetPoint" />
            <mxPoint x="-20" y="-20" as="offset" />
          </mxGeometry>
        </mxCell>
        <mxCell id="uebBENzF8Cfto2oKfxIs-44" value="x04" style="edgeStyle=orthogonalEdgeStyle;rounded=0;orthogonalLoop=1;jettySize=auto;html=1;exitX=0;exitY=0.75;exitDx=0;exitDy=0;exitPerimeter=0;endArrow=none;endFill=0;" edge="1" parent="1" source="uebBENzF8Cfto2oKfxIs-42">
          <mxGeometry x="1" y="20" relative="1" as="geometry">
            <mxPoint x="120" y="46.68181818181813" as="targetPoint" />
            <mxPoint x="-20" y="-20" as="offset" />
          </mxGeometry>
        </mxCell>
        <mxCell id="uebBENzF8Cfto2oKfxIs-42" value="XOR" style="verticalLabelPosition=bottom;shadow=0;dashed=0;align=center;html=1;verticalAlign=top;shape=mxgraph.electrical.logic_gates.logic_gate;operation=xor;" vertex="1" parent="1">
          <mxGeometry x="260" y="20" width="50" height="35" as="geometry" />
        </mxCell>
        <mxCell id="uebBENzF8Cfto2oKfxIs-46" value="ggh" style="edgeStyle=orthogonalEdgeStyle;rounded=0;orthogonalLoop=1;jettySize=auto;html=1;exitX=0;exitY=0.25;exitDx=0;exitDy=0;exitPerimeter=0;endArrow=none;endFill=0;" edge="1" parent="1" source="uebBENzF8Cfto2oKfxIs-45">
          <mxGeometry relative="1" as="geometry">
            <mxPoint x="120" y="438.66666666666663" as="targetPoint" />
          </mxGeometry>
        </mxCell>
        <mxCell id="uebBENzF8Cfto2oKfxIs-47" value="tvp" style="edgeStyle=orthogonalEdgeStyle;rounded=0;orthogonalLoop=1;jettySize=auto;html=1;exitX=0;exitY=0.75;exitDx=0;exitDy=0;exitPerimeter=0;endArrow=none;endFill=0;" edge="1" parent="1" source="uebBENzF8Cfto2oKfxIs-45">
          <mxGeometry relative="1" as="geometry">
            <mxPoint x="120" y="456" as="targetPoint" />
          </mxGeometry>
        </mxCell>
        <mxCell id="uebBENzF8Cfto2oKfxIs-45" value="XOR" style="verticalLabelPosition=bottom;shadow=0;dashed=0;align=center;html=1;verticalAlign=top;shape=mxgraph.electrical.logic_gates.logic_gate;operation=xor;fillColor=#f8cecc;strokeColor=#b85450;" vertex="1" parent="1">
          <mxGeometry x="260" y="430" width="50" height="35" as="geometry" />
        </mxCell>
        <mxCell id="uebBENzF8Cfto2oKfxIs-53" value="fsb" style="edgeStyle=orthogonalEdgeStyle;rounded=0;orthogonalLoop=1;jettySize=auto;html=1;exitX=0.175;exitY=0.25;exitDx=0;exitDy=0;exitPerimeter=0;endArrow=none;endFill=0;" edge="1" parent="1" source="uebBENzF8Cfto2oKfxIs-51">
          <mxGeometry relative="1" as="geometry">
            <mxPoint x="120" y="594.2857142857144" as="targetPoint" />
          </mxGeometry>
        </mxCell>
        <mxCell id="uebBENzF8Cfto2oKfxIs-54" value="vgh" style="edgeStyle=orthogonalEdgeStyle;rounded=0;orthogonalLoop=1;jettySize=auto;html=1;exitX=0.175;exitY=0.75;exitDx=0;exitDy=0;exitPerimeter=0;endArrow=none;endFill=0;" edge="1" parent="1" source="uebBENzF8Cfto2oKfxIs-51">
          <mxGeometry relative="1" as="geometry">
            <mxPoint x="120" y="614.2857142857144" as="targetPoint" />
          </mxGeometry>
        </mxCell>
        <mxCell id="uebBENzF8Cfto2oKfxIs-51" value="OR" style="shape=xor;whiteSpace=wrap;html=1;fontStyle=0;fillColor=#f8cecc;strokeColor=#b85450;" vertex="1" parent="1">
          <mxGeometry x="270" y="584" width="30" height="40" as="geometry" />
        </mxCell>
        <mxCell id="uebBENzF8Cfto2oKfxIs-56" value="y07" style="edgeStyle=orthogonalEdgeStyle;rounded=0;orthogonalLoop=1;jettySize=auto;html=1;exitX=0;exitY=0.25;exitDx=0;exitDy=0;exitPerimeter=0;endArrow=none;endFill=0;" edge="1" parent="1" source="uebBENzF8Cfto2oKfxIs-55">
          <mxGeometry x="1" y="20" relative="1" as="geometry">
            <mxPoint x="120" y="662.6341463414635" as="targetPoint" />
            <mxPoint x="-20" y="-18" as="offset" />
          </mxGeometry>
        </mxCell>
        <mxCell id="uebBENzF8Cfto2oKfxIs-57" value="x07" style="edgeStyle=orthogonalEdgeStyle;rounded=0;orthogonalLoop=1;jettySize=auto;html=1;exitX=0;exitY=0.75;exitDx=0;exitDy=0;exitPerimeter=0;endArrow=none;endFill=0;" edge="1" parent="1" source="uebBENzF8Cfto2oKfxIs-55">
          <mxGeometry x="1" y="20" relative="1" as="geometry">
            <mxPoint x="120" y="680.1951219512196" as="targetPoint" />
            <mxPoint x="-20" y="-20" as="offset" />
          </mxGeometry>
        </mxCell>
        <mxCell id="uebBENzF8Cfto2oKfxIs-55" value="XOR" style="verticalLabelPosition=bottom;shadow=0;dashed=0;align=center;html=1;verticalAlign=top;shape=mxgraph.electrical.logic_gates.logic_gate;operation=xor;" vertex="1" parent="1">
          <mxGeometry x="260" y="654" width="50" height="35" as="geometry" />
        </mxCell>
        <mxCell id="uebBENzF8Cfto2oKfxIs-58" value="z30" style="rounded=0;whiteSpace=wrap;html=1;fillColor=#f8cecc;strokeColor=#b85450;" vertex="1" parent="1">
          <mxGeometry x="624" y="1980" width="120" height="60" as="geometry" />
        </mxCell>
        <mxCell id="uebBENzF8Cfto2oKfxIs-59" value="&lt;div style=&quot;font-size: 28px;&quot;&gt;&lt;b style=&quot;background-color: initial;&quot;&gt;&lt;font style=&quot;font-size: 28px;&quot;&gt;Swapped&lt;/font&gt;&lt;/b&gt;&lt;/div&gt;&lt;font style=&quot;font-size: 28px;&quot;&gt;&lt;div style=&quot;&quot;&gt;&lt;span style=&quot;background-color: initial;&quot;&gt;&lt;font style=&quot;font-size: 28px;&quot;&gt;jst with z05&lt;/font&gt;&lt;/span&gt;&lt;/div&gt;&lt;div style=&quot;&quot;&gt;&lt;span style=&quot;background-color: initial;&quot;&gt;&lt;font style=&quot;font-size: 28px;&quot;&gt;mcm with gdf&lt;/font&gt;&lt;/span&gt;&lt;/div&gt;&lt;div style=&quot;&quot;&gt;&lt;span style=&quot;background-color: initial;&quot;&gt;&lt;font style=&quot;font-size: 28px;&quot;&gt;dnt with z15&lt;/font&gt;&lt;/span&gt;&lt;/div&gt;&lt;div style=&quot;&quot;&gt;&lt;span style=&quot;background-color: initial;&quot;&gt;&lt;font style=&quot;font-size: 28px;&quot;&gt;gwc with z30&lt;/font&gt;&lt;/span&gt;&lt;/div&gt;&lt;div style=&quot;&quot;&gt;&lt;span style=&quot;background-color: initial;&quot;&gt;&lt;font style=&quot;font-size: 28px;&quot;&gt;&lt;br&gt;&lt;/font&gt;&lt;/span&gt;&lt;/div&gt;&lt;div style=&quot;&quot;&gt;&lt;font style=&quot;font-size: 28px;&quot;&gt;dnt,gdf,gwc,jst,mcm,z05,z15,z30&lt;/font&gt;&lt;span style=&quot;background-color: initial; font-size: 18px;&quot;&gt;&lt;/span&gt;&lt;/div&gt;&lt;/font&gt;" style="rounded=1;whiteSpace=wrap;html=1;align=left;" vertex="1" parent="1">
          <mxGeometry x="890" y="270" width="570" height="570" as="geometry" />
        </mxCell>
        <mxCell id="uebBENzF8Cfto2oKfxIs-60" value="z10" style="rounded=0;whiteSpace=wrap;html=1;" vertex="1" parent="1">
          <mxGeometry x="730" y="950" width="120" height="60" as="geometry" />
        </mxCell>
        <mxCell id="uebBENzF8Cfto2oKfxIs-61" value="mcm" style="edgeStyle=orthogonalEdgeStyle;rounded=0;orthogonalLoop=1;jettySize=auto;html=1;exitX=0;exitY=0.25;exitDx=0;exitDy=0;exitPerimeter=0;endArrow=none;endFill=0;entryX=1;entryY=0.5;entryDx=0;entryDy=0;entryPerimeter=0;fillColor=#f8cecc;strokeColor=#b85450;" edge="1" parent="1" source="uebBENzF8Cfto2oKfxIs-64" target="uebBENzF8Cfto2oKfxIs-65">
          <mxGeometry x="0.0012" relative="1" as="geometry">
            <mxPoint x="380" y="920" as="targetPoint" />
            <mxPoint as="offset" />
          </mxGeometry>
        </mxCell>
        <mxCell id="uebBENzF8Cfto2oKfxIs-62" value="tdw" style="edgeStyle=orthogonalEdgeStyle;rounded=0;orthogonalLoop=1;jettySize=auto;html=1;exitX=0;exitY=0.75;exitDx=0;exitDy=0;exitPerimeter=0;endArrow=none;endFill=0;entryX=1;entryY=0.5;entryDx=0;entryDy=0;entryPerimeter=0;" edge="1" parent="1" source="uebBENzF8Cfto2oKfxIs-64" target="uebBENzF8Cfto2oKfxIs-68">
          <mxGeometry x="0.002" relative="1" as="geometry">
            <mxPoint x="380" y="1030" as="targetPoint" />
            <mxPoint as="offset" />
          </mxGeometry>
        </mxCell>
        <mxCell id="uebBENzF8Cfto2oKfxIs-63" style="edgeStyle=orthogonalEdgeStyle;rounded=0;orthogonalLoop=1;jettySize=auto;html=1;" edge="1" parent="1" source="uebBENzF8Cfto2oKfxIs-64" target="uebBENzF8Cfto2oKfxIs-60">
          <mxGeometry relative="1" as="geometry" />
        </mxCell>
        <mxCell id="uebBENzF8Cfto2oKfxIs-64" value="XOR" style="verticalLabelPosition=bottom;shadow=0;dashed=0;align=center;html=1;verticalAlign=top;shape=mxgraph.electrical.logic_gates.logic_gate;operation=xor;" vertex="1" parent="1">
          <mxGeometry x="564" y="962.5" width="50" height="35" as="geometry" />
        </mxCell>
        <mxCell id="uebBENzF8Cfto2oKfxIs-66" value="x10" style="edgeStyle=orthogonalEdgeStyle;rounded=0;orthogonalLoop=1;jettySize=auto;html=1;exitX=0;exitY=0.25;exitDx=0;exitDy=0;exitPerimeter=0;endArrow=none;endFill=0;" edge="1" parent="1" source="uebBENzF8Cfto2oKfxIs-65">
          <mxGeometry x="1" y="10" relative="1" as="geometry">
            <mxPoint x="100" y="893" as="targetPoint" />
            <mxPoint x="-10" y="-10" as="offset" />
          </mxGeometry>
        </mxCell>
        <mxCell id="uebBENzF8Cfto2oKfxIs-67" value="y10" style="edgeStyle=orthogonalEdgeStyle;rounded=0;orthogonalLoop=1;jettySize=auto;html=1;exitX=0;exitY=0.75;exitDx=0;exitDy=0;exitPerimeter=0;endArrow=none;endFill=0;" edge="1" parent="1" source="uebBENzF8Cfto2oKfxIs-65">
          <mxGeometry x="1" y="-10" relative="1" as="geometry">
            <mxPoint x="100" y="918" as="targetPoint" />
            <Array as="points">
              <mxPoint x="170" y="918" />
            </Array>
            <mxPoint x="-10" y="10" as="offset" />
          </mxGeometry>
        </mxCell>
        <mxCell id="uebBENzF8Cfto2oKfxIs-65" value="AND" style="shape=or;whiteSpace=wrap;html=1;" vertex="1" parent="1">
          <mxGeometry x="270" y="880" width="30" height="50" as="geometry" />
        </mxCell>
        <mxCell id="uebBENzF8Cfto2oKfxIs-69" value="mcc" style="edgeStyle=orthogonalEdgeStyle;rounded=0;orthogonalLoop=1;jettySize=auto;html=1;exitX=0.175;exitY=0.25;exitDx=0;exitDy=0;exitPerimeter=0;endArrow=none;endFill=0;" edge="1" parent="1" source="uebBENzF8Cfto2oKfxIs-68">
          <mxGeometry relative="1" as="geometry">
            <mxPoint x="100" y="1000" as="targetPoint" />
            <Array as="points">
              <mxPoint x="180" y="1000" />
              <mxPoint x="180" y="1001" />
              <mxPoint x="100" y="1001" />
            </Array>
          </mxGeometry>
        </mxCell>
        <mxCell id="uebBENzF8Cfto2oKfxIs-70" value="hrq" style="edgeStyle=orthogonalEdgeStyle;rounded=0;orthogonalLoop=1;jettySize=auto;html=1;exitX=0.175;exitY=0.75;exitDx=0;exitDy=0;exitPerimeter=0;endArrow=none;endFill=0;" edge="1" parent="1" source="uebBENzF8Cfto2oKfxIs-68">
          <mxGeometry relative="1" as="geometry">
            <mxPoint x="100" y="1020" as="targetPoint" />
          </mxGeometry>
        </mxCell>
        <mxCell id="uebBENzF8Cfto2oKfxIs-68" value="OR" style="shape=xor;whiteSpace=wrap;html=1;fontStyle=0;" vertex="1" parent="1">
          <mxGeometry x="270" y="990" width="30" height="40" as="geometry" />
        </mxCell>
        <mxCell id="uebBENzF8Cfto2oKfxIs-71" value="x10" style="edgeStyle=orthogonalEdgeStyle;rounded=0;orthogonalLoop=1;jettySize=auto;html=1;exitX=0;exitY=0.25;exitDx=0;exitDy=0;exitPerimeter=0;endArrow=none;endFill=0;" edge="1" parent="1" source="uebBENzF8Cfto2oKfxIs-32">
          <mxGeometry x="1" y="10" relative="1" as="geometry">
            <mxPoint x="145" y="1059" as="targetPoint" />
            <mxPoint x="-10" y="-10" as="offset" />
            <mxPoint x="315" y="1052.5" as="sourcePoint" />
          </mxGeometry>
        </mxCell>
        <mxCell id="uebBENzF8Cfto2oKfxIs-72" value="y10" style="edgeStyle=orthogonalEdgeStyle;rounded=0;orthogonalLoop=1;jettySize=auto;html=1;exitX=0;exitY=0.75;exitDx=0;exitDy=0;exitPerimeter=0;endArrow=none;endFill=0;" edge="1" parent="1" source="uebBENzF8Cfto2oKfxIs-32">
          <mxGeometry x="1" y="-10" relative="1" as="geometry">
            <mxPoint x="140" y="1078" as="targetPoint" />
            <Array as="points">
              <mxPoint x="215" y="1076" />
              <mxPoint x="215" y="1078" />
            </Array>
            <mxPoint x="-10" y="10" as="offset" />
            <mxPoint x="315" y="1077.5" as="sourcePoint" />
          </mxGeometry>
        </mxCell>
        <mxCell id="uebBENzF8Cfto2oKfxIs-76" value="z15" style="rounded=0;whiteSpace=wrap;html=1;" vertex="1" parent="1">
          <mxGeometry x="744" y="1239" width="120" height="60" as="geometry" />
        </mxCell>
        <mxCell id="uebBENzF8Cfto2oKfxIs-79" style="edgeStyle=orthogonalEdgeStyle;rounded=0;orthogonalLoop=1;jettySize=auto;html=1;exitX=1;exitY=0.5;exitDx=0;exitDy=0;exitPerimeter=0;fillColor=#f8cecc;strokeColor=#b85450;" edge="1" parent="1" source="uebBENzF8Cfto2oKfxIs-83" target="uebBENzF8Cfto2oKfxIs-76">
          <mxGeometry relative="1" as="geometry">
            <mxPoint x="320" y="1190" as="sourcePoint" />
          </mxGeometry>
        </mxCell>
        <mxCell id="uebBENzF8Cfto2oKfxIs-81" value="y15" style="edgeStyle=orthogonalEdgeStyle;rounded=0;orthogonalLoop=1;jettySize=auto;html=1;exitX=0;exitY=0.25;exitDx=0;exitDy=0;exitPerimeter=0;endArrow=none;endFill=0;" edge="1" parent="1" source="uebBENzF8Cfto2oKfxIs-83">
          <mxGeometry x="1" y="4" relative="1" as="geometry">
            <mxPoint x="114" y="1182" as="targetPoint" />
            <mxPoint x="-4" y="-4" as="offset" />
          </mxGeometry>
        </mxCell>
        <mxCell id="uebBENzF8Cfto2oKfxIs-82" value="x15" style="edgeStyle=orthogonalEdgeStyle;rounded=0;orthogonalLoop=1;jettySize=auto;html=1;exitX=0;exitY=0.75;exitDx=0;exitDy=0;exitPerimeter=0;endArrow=none;endFill=0;" edge="1" parent="1" source="uebBENzF8Cfto2oKfxIs-83">
          <mxGeometry x="1" y="-10" relative="1" as="geometry">
            <mxPoint x="114" y="1207" as="targetPoint" />
            <Array as="points">
              <mxPoint x="184" y="1207" />
            </Array>
            <mxPoint x="-10" y="10" as="offset" />
          </mxGeometry>
        </mxCell>
        <mxCell id="uebBENzF8Cfto2oKfxIs-83" value="AND" style="shape=or;whiteSpace=wrap;html=1;" vertex="1" parent="1">
          <mxGeometry x="284" y="1169" width="30" height="50" as="geometry" />
        </mxCell>
        <mxCell id="uebBENzF8Cfto2oKfxIs-87" value="dvj" style="edgeStyle=orthogonalEdgeStyle;rounded=0;orthogonalLoop=1;jettySize=auto;html=1;exitX=1;exitY=0.5;exitDx=0;exitDy=0;exitPerimeter=0;endArrow=none;endFill=0;fillColor=#f8cecc;strokeColor=#b85450;" edge="1" parent="1" source="uebBENzF8Cfto2oKfxIs-88">
          <mxGeometry x="0.0327" y="1" relative="1" as="geometry">
            <mxPoint x="414" y="1297.2857142857142" as="targetPoint" />
            <mxPoint x="1" as="offset" />
          </mxGeometry>
        </mxCell>
        <mxCell id="uebBENzF8Cfto2oKfxIs-88" value="XOR" style="verticalLabelPosition=bottom;shadow=0;dashed=0;align=center;html=1;verticalAlign=top;shape=mxgraph.electrical.logic_gates.logic_gate;operation=xor;" vertex="1" parent="1">
          <mxGeometry x="294" y="1280" width="50" height="35" as="geometry" />
        </mxCell>
        <mxCell id="uebBENzF8Cfto2oKfxIs-89" value="y15" style="edgeStyle=orthogonalEdgeStyle;rounded=0;orthogonalLoop=1;jettySize=auto;html=1;exitX=0;exitY=0.25;exitDx=0;exitDy=0;exitPerimeter=0;endArrow=none;endFill=0;" edge="1" parent="1" source="uebBENzF8Cfto2oKfxIs-88">
          <mxGeometry x="1" y="10" relative="1" as="geometry">
            <mxPoint x="119" y="1289" as="targetPoint" />
            <mxPoint x="-10" y="-10" as="offset" />
            <mxPoint x="289" y="1282.5" as="sourcePoint" />
          </mxGeometry>
        </mxCell>
        <mxCell id="uebBENzF8Cfto2oKfxIs-90" value="x15" style="edgeStyle=orthogonalEdgeStyle;rounded=0;orthogonalLoop=1;jettySize=auto;html=1;exitX=0;exitY=0.75;exitDx=0;exitDy=0;exitPerimeter=0;endArrow=none;endFill=0;" edge="1" parent="1" source="uebBENzF8Cfto2oKfxIs-88">
          <mxGeometry x="1" y="-10" relative="1" as="geometry">
            <mxPoint x="120" y="1308" as="targetPoint" />
            <Array as="points">
              <mxPoint x="189" y="1306" />
              <mxPoint x="189" y="1308" />
            </Array>
            <mxPoint x="-10" y="10" as="offset" />
            <mxPoint x="289" y="1307.5" as="sourcePoint" />
          </mxGeometry>
        </mxCell>
        <mxCell id="uebBENzF8Cfto2oKfxIs-91" value="z30" style="rounded=0;whiteSpace=wrap;html=1;" vertex="1" parent="1">
          <mxGeometry x="740" y="1510" width="120" height="60" as="geometry" />
        </mxCell>
        <mxCell id="uebBENzF8Cfto2oKfxIs-104" style="edgeStyle=orthogonalEdgeStyle;rounded=0;orthogonalLoop=1;jettySize=auto;html=1;entryX=0;entryY=0.5;entryDx=0;entryDy=0;" edge="1" parent="1" source="uebBENzF8Cfto2oKfxIs-102" target="uebBENzF8Cfto2oKfxIs-91">
          <mxGeometry relative="1" as="geometry" />
        </mxCell>
        <mxCell id="uebBENzF8Cfto2oKfxIs-105" value="kgr" style="edgeStyle=orthogonalEdgeStyle;rounded=0;orthogonalLoop=1;jettySize=auto;html=1;exitX=0;exitY=0.25;exitDx=0;exitDy=0;exitPerimeter=0;endArrow=none;endFill=0;" edge="1" parent="1" source="uebBENzF8Cfto2oKfxIs-102">
          <mxGeometry relative="1" as="geometry">
            <mxPoint x="280" y="1528" as="targetPoint" />
          </mxGeometry>
        </mxCell>
        <mxCell id="uebBENzF8Cfto2oKfxIs-106" value="vrg" style="edgeStyle=orthogonalEdgeStyle;rounded=0;orthogonalLoop=1;jettySize=auto;html=1;exitX=0;exitY=0.75;exitDx=0;exitDy=0;exitPerimeter=0;endArrow=none;endFill=0;" edge="1" parent="1" source="uebBENzF8Cfto2oKfxIs-102">
          <mxGeometry relative="1" as="geometry">
            <mxPoint x="290" y="1553" as="targetPoint" />
          </mxGeometry>
        </mxCell>
        <mxCell id="uebBENzF8Cfto2oKfxIs-102" value="AND" style="shape=or;whiteSpace=wrap;html=1;" vertex="1" parent="1">
          <mxGeometry x="520" y="1515" width="30" height="50" as="geometry" />
        </mxCell>
      </root>
    </mxGraphModel>
  </diagram>
</mxfile>
